<svg width="18" height="17" viewBox="0 0 18 17" fill="none" xmlns="http://www.w3.org/2000/svg">
<g id="uil:facebook">
<path id="Vector" d="M15.127 1.41016H2.5681C2.36227 1.41016 2.16486 1.49192 2.01931 1.63747C1.87376 1.78302 1.79199 1.98043 1.79199 2.18627V14.7452C1.79199 14.951 1.87376 15.1484 2.01931 15.294C2.16486 15.4395 2.36227 15.5213 2.5681 15.5213H9.32733V10.0532H7.49288V7.93655H9.32733V6.34905C9.28933 5.97634 9.33333 5.59983 9.45624 5.24594C9.57916 4.89204 9.77801 4.56931 10.0389 4.3004C10.2997 4.03149 10.6162 3.8229 10.9662 3.68927C11.3162 3.55563 11.6912 3.50019 12.0649 3.52682C12.614 3.52344 13.1629 3.55171 13.7088 3.61149V5.51649H12.587C11.698 5.51649 11.5287 5.93982 11.5287 6.55366V7.91538H13.6453L13.3702 10.032H11.5287V15.5213H15.127C15.2289 15.5213 15.3298 15.5012 15.424 15.4622C15.5182 15.4232 15.6037 15.366 15.6758 15.294C15.7479 15.2219 15.805 15.1363 15.844 15.0422C15.883 14.948 15.9031 14.8471 15.9031 14.7452V2.18627C15.9031 2.08435 15.883 1.98342 15.844 1.88926C15.805 1.7951 15.7479 1.70954 15.6758 1.63747C15.6037 1.56541 15.5182 1.50824 15.424 1.46923C15.3298 1.43023 15.2289 1.41016 15.127 1.41016Z" fill="#5AA5FF"/>
</g>
</svg>
