<svg width="17" height="17" viewBox="0 0 17 17" fill="none" xmlns="http://www.w3.org/2000/svg">
<g id="mdi:instagram">
<path id="Vector" d="M5.50628 1.41016H11.433C13.6907 1.41016 15.5252 3.2446 15.5252 5.50238V11.429C15.5252 12.5144 15.094 13.5552 14.3266 14.3227C13.5591 15.0901 12.5183 15.5213 11.433 15.5213H5.50628C3.24851 15.5213 1.41406 13.6868 1.41406 11.429V5.50238C1.41406 4.41705 1.84521 3.37618 2.61265 2.60874C3.38009 1.8413 4.42096 1.41016 5.50628 1.41016ZM5.36517 2.82127C4.69152 2.82127 4.04546 3.08887 3.56912 3.56522C3.09278 4.04156 2.82517 4.68762 2.82517 5.36127V11.5702C2.82517 12.9742 3.96112 14.1102 5.36517 14.1102H11.5741C12.2477 14.1102 12.8938 13.8426 13.3701 13.3662C13.8465 12.8899 14.1141 12.2438 14.1141 11.5702V5.36127C14.1141 3.95721 12.9781 2.82127 11.5741 2.82127H5.36517ZM12.1738 3.8796C12.4077 3.8796 12.632 3.97252 12.7974 4.13792C12.9628 4.30331 13.0557 4.52764 13.0557 4.76155C13.0557 4.99545 12.9628 5.21978 12.7974 5.38517C12.632 5.55057 12.4077 5.64349 12.1738 5.64349C11.9399 5.64349 11.7156 5.55057 11.5502 5.38517C11.3848 5.21978 11.2918 4.99545 11.2918 4.76155C11.2918 4.52764 11.3848 4.30331 11.5502 4.13792C11.7156 3.97252 11.9399 3.8796 12.1738 3.8796ZM8.46962 4.93793C9.40524 4.93793 10.3025 5.30961 10.9641 5.9712C11.6257 6.63278 11.9974 7.53009 11.9974 8.46571C11.9974 9.40134 11.6257 10.2986 10.9641 10.9602C10.3025 11.6218 9.40524 11.9935 8.46962 11.9935C7.53399 11.9935 6.63669 11.6218 5.9751 10.9602C5.31352 10.2986 4.94184 9.40134 4.94184 8.46571C4.94184 7.53009 5.31352 6.63278 5.9751 5.9712C6.63669 5.30961 7.53399 4.93793 8.46962 4.93793ZM8.46962 6.34905C7.90824 6.34905 7.36986 6.57205 6.97291 6.969C6.57596 7.36595 6.35295 7.90434 6.35295 8.46571C6.35295 9.02709 6.57596 9.56547 6.97291 9.96242C7.36986 10.3594 7.90824 10.5824 8.46962 10.5824C9.03099 10.5824 9.56938 10.3594 9.96633 9.96242C10.3633 9.56547 10.5863 9.02709 10.5863 8.46571C10.5863 7.90434 10.3633 7.36595 9.96633 6.969C9.56938 6.57205 9.03099 6.34905 8.46962 6.34905Z" fill="#5AA5FF"/>
</g>
</svg>
