<svg width="17" height="17" viewBox="0 0 17 17" fill="none" xmlns="http://www.w3.org/2000/svg">
<g id="material-symbols:share">
<path id="Vector" d="M12.7596 15.5213C12.1716 15.5213 11.6719 15.3155 11.2603 14.9039C10.8487 14.4923 10.6429 13.9926 10.6429 13.4046C10.6429 13.3223 10.6488 13.2369 10.6606 13.1485C10.6723 13.0601 10.69 12.9808 10.7135 12.9107L5.73933 10.0179C5.53942 10.1943 5.31599 10.3326 5.06905 10.4328C4.8221 10.533 4.5634 10.5828 4.29294 10.5824C3.70497 10.5824 3.2052 10.3766 2.79363 9.96502C2.38206 9.55344 2.17627 9.05367 2.17627 8.46571C2.17627 7.87775 2.38206 7.37798 2.79363 6.96641C3.2052 6.55483 3.70497 6.34905 4.29294 6.34905C4.5634 6.34905 4.8221 6.39914 5.06905 6.49933C5.31599 6.59952 5.53942 6.73757 5.73933 6.91349L10.7135 4.02071C10.69 3.95016 10.6723 3.8709 10.6606 3.78294C10.6488 3.69498 10.6429 3.60961 10.6429 3.52682C10.6429 2.93886 10.8487 2.43909 11.2603 2.02752C11.6719 1.61594 12.1716 1.41016 12.7596 1.41016C13.3476 1.41016 13.8473 1.61594 14.2589 2.02752C14.6705 2.43909 14.8763 2.93886 14.8763 3.52682C14.8763 4.11479 14.6705 4.61455 14.2589 5.02613C13.8473 5.4377 13.3476 5.64349 12.7596 5.64349C12.4891 5.64349 12.2304 5.59363 11.9835 5.49391C11.7365 5.39419 11.5131 5.2559 11.3132 5.07905L6.33905 7.97182C6.36257 8.04238 6.38021 8.12187 6.39196 8.2103C6.40372 8.29873 6.4096 8.38387 6.4096 8.46571C6.4096 8.54803 6.40372 8.6334 6.39196 8.72183C6.38021 8.81026 6.36257 8.88952 6.33905 8.9596L11.3132 11.8524C11.5131 11.676 11.7365 11.5379 11.9835 11.4382C12.2304 11.3385 12.4891 11.2884 12.7596 11.2879C13.3476 11.2879 13.8473 11.4937 14.2589 11.9053C14.6705 12.3169 14.8763 12.8166 14.8763 13.4046C14.8763 13.9926 14.6705 14.4923 14.2589 14.9039C13.8473 15.3155 13.3476 15.5213 12.7596 15.5213Z" fill="#5AA5FF"/>
</g>
</svg>
