<svg width="18" height="17" viewBox="0 0 18 17" fill="none" xmlns="http://www.w3.org/2000/svg">
<g id="mdi:twitter">
<path id="Vector" d="M16.5351 4.23338C15.9918 4.48032 15.4062 4.6426 14.7995 4.72021C15.4203 4.34627 15.9001 3.7536 16.1259 3.04099C15.5403 3.39377 14.8912 3.64071 14.2068 3.78182C13.6494 3.17504 12.8662 2.82227 11.9772 2.82227C10.3192 2.82227 8.96451 4.17693 8.96451 5.8491C8.96451 6.08899 8.99274 6.32182 9.04212 6.54054C6.53035 6.41354 4.29374 5.20704 2.80501 3.37965C2.54396 3.82415 2.39579 4.34627 2.39579 4.8966C2.39579 5.94788 2.92496 6.87921 3.7434 7.40838C3.24246 7.40838 2.77679 7.26727 2.36757 7.0556V7.07677C2.36757 8.54432 3.41179 9.77199 4.79468 10.0472C4.35069 10.1687 3.88458 10.1856 3.43296 10.0965C3.62459 10.698 3.9999 11.2243 4.50612 11.6014C5.01234 11.9786 5.62402 12.1876 6.25518 12.1991C5.1853 13.0461 3.85911 13.5039 2.49457 13.4973C2.25468 13.4973 2.01479 13.4832 1.7749 13.455C3.11546 14.3158 4.71001 14.8167 6.41746 14.8167C11.9772 14.8167 15.0323 10.2024 15.0323 6.20188C15.0323 6.06782 15.0323 5.94082 15.0252 5.80677C15.6179 5.38343 16.1259 4.84721 16.5351 4.23338Z" fill="#5AA5FF"/>
</g>
</svg>
